<?xml version="1.0" encoding="UTF-8" standalone="no"?>
<!-- Created with Inkscape (http://www.inkscape.org/) -->

<svg
   xmlns:dc="http://purl.org/dc/elements/1.1/"
   xmlns:cc="http://creativecommons.org/ns#"
   xmlns:rdf="http://www.w3.org/1999/02/22-rdf-syntax-ns#"
   xmlns:svg="http://www.w3.org/2000/svg"
   xmlns="http://www.w3.org/2000/svg"
   xmlns:sodipodi="http://sodipodi.sourceforge.net/DTD/sodipodi-0.dtd"
   xmlns:inkscape="http://www.inkscape.org/namespaces/inkscape"
   width="210mm"
   height="297mm"
   viewBox="0 0 744.09448819 1052.3622047"
   id="svg3347"
   version="1.1"
   inkscape:version="0.91 r13725"
   sodipodi:docname="ptm_logo.svg"
   inkscape:export-filename="C:\Users\Rainier &amp; Danielle\Desktop\tekening.png"
   inkscape:export-xdpi="91.697205"
   inkscape:export-ydpi="91.697205">
  <defs
     id="defs3349" />
  <sodipodi:namedview
     id="base"
     pagecolor="#ffffff"
     bordercolor="#666666"
     borderopacity="1.0"
     inkscape:pageopacity="0.0"
     inkscape:pageshadow="2"
     inkscape:zoom="0.7"
     inkscape:cx="349.9775"
     inkscape:cy="508.0308"
     inkscape:document-units="px"
     inkscape:current-layer="layer2"
     showgrid="false"
     inkscape:window-width="1680"
     inkscape:window-height="987"
     inkscape:window-x="-8"
     inkscape:window-y="-8"
     inkscape:window-maximized="1" />
  <metadata
     id="metadata3352">
    <rdf:RDF>
      <cc:Work
         rdf:about="">
        <dc:format>image/svg+xml</dc:format>
        <dc:type
           rdf:resource="http://purl.org/dc/dcmitype/StillImage" />
        <dc:title />
      </cc:Work>
    </rdf:RDF>
  </metadata>
  <g
     inkscape:groupmode="layer"
     id="layer2"
     inkscape:label="Achtergrond"
     style="display:none">
    <rect
       style="fill:#0000ff;fill-opacity:0.50196078;stroke:none"
       id="rect4183"
       width="504.57172"
       height="503.14316"
       x="127.14285"
       y="227.79048"
       inkscape:export-xdpi="106.96757"
       inkscape:export-ydpi="106.96757"
       inkscape:export-filename="D:\Projects\Pebble Time Connect\Logos\pln_1240.png" />
  </g>
  <g
     inkscape:label="Laag 1"
     inkscape:groupmode="layer"
     id="layer1">
    <path
       style="fill:#ffffff;fill-rule:evenodd;stroke:none;stroke-width:1px;stroke-linecap:butt;stroke-linejoin:miter;stroke-opacity:1"
       d="M 363.83789 326.64844 L 265.38281 329.50586 C 242.62211 330.54067 234.18113 346.54302 230 358.07617 L 201.42773 505.21875 C 198.93072 524.50248 203.42675 545.35519 225.64258 546.64844 L 361.42773 545.21875 C 371.77626 544.10427 380.6001 535.36349 387.14258 515.21875 L 412.85742 373.79102 C 412.00572 354.70984 399.10114 330.55521 363.83789 326.64844 z M 349.28516 349.50586 C 360.75842 352.63721 364.71244 358.9969 362.85742 371.64844 L 337.14258 499.50586 C 335.44443 508.76009 328.98241 523.89135 318.06641 523.92773 L 231.21875 523.8418 C 223.15076 521.36418 217.49205 513.94401 218.86719 494.46875 L 242.14258 370.93359 C 247.49685 357.76878 254.41135 350.0603 263.57227 350.21875 L 349.28516 349.50586 z "
       id="path3376" />
    <path
       style="fill:#ffffff;fill-rule:evenodd;stroke:none;stroke-width:1px;stroke-linecap:butt;stroke-linejoin:miter;stroke-opacity:1"
       d="m 240,563.79078 95.71429,-1.42858 c 5.70991,76.91405 56.77874,111.19043 105,122.14287 l -98.57144,-1.42858 C 280.56967,666.74085 252.61998,617.78273 240,563.79078 Z"
       id="path3368"
       inkscape:connector-curvature="0"
       sodipodi:nodetypes="ccccc" />
    <path
       style="fill:#cccccc;fill-rule:evenodd;stroke:none;stroke-width:1px;stroke-linecap:butt;stroke-linejoin:miter;stroke-opacity:1;fill-opacity:0.50196081"
       d="m 237.0921,505.56598 c 1.88801,2.20889 6.20404,2.37373 6.20404,2.37373 14.13603,-0.0842 53.62919,0.18878 67.76522,0.1046 0,0 5.12677,-0.14392 7.27547,-1.91198 2.14046,-1.76128 2.79587,-6.34935 2.79587,-6.34935 l 26.21937,-124.96039 c 0,0 0.87517,-4.30209 -0.9235,-6.38896 -1.78761,-2.07403 -6.07143,-1.78571 -6.07143,-1.78571 l -68.92857,0 c 0,0 -4.85541,0.23884 -7.14286,2.14286 -2.55729,2.12863 -3.5968,7.67331 -3.5968,7.67331 l -24.11983,122.76522 c 0,0 -1.51367,3.95382 0.52302,6.33667 z"
       id="path3370"
       inkscape:connector-curvature="0"
       sodipodi:nodetypes="sccsccsccsccs" />
    <path
       style="fill:#ffffff;fill-opacity:1;fill-rule:evenodd;stroke:none;stroke-width:1px;stroke-linecap:butt;stroke-linejoin:miter;stroke-opacity:1"
       d="m 404.28571,315.93363 c 78.38168,108.13383 35.73978,314.77876 -22.85714,326.42857 28.62232,25.42623 40.14899,25.47482 62.50001,32.14287 19.57903,2.0672 22.6352,11.22866 51.7857,-24.28572 19.13502,-28.71836 24.15583,-40.93043 32.44615,-66.63014 7.20845,-22.34594 11.99306,-58.45848 13.49189,-101.12738 0.47385,-13.48981 -0.12357,-36.93214 -4.46385,-63.7566 -4.34027,-26.82446 -5.71926,-37.73282 -18.12473,-71.83149 -29.70993,-63.04795 -46.20659,-61.29725 -46.20659,-61.29725 -19.04762,-0.95239 -67.38096,13.69048 -68.57144,30.35714 z"
       id="path3372"
       inkscape:connector-curvature="0"
       sodipodi:nodetypes="ccccsssccc" />
    <path
       style="fill:#ffffff;fill-rule:evenodd;stroke:none;stroke-width:1px;stroke-linecap:butt;stroke-linejoin:miter;stroke-opacity:1"
       d="m 300,310.93363 85.71429,0 C 412.85715,281.42158 440,274.42534 467.14286,275.21935 l -107.14286,0 c -32.59973,13.80952 -46.31429,21.90476 -60,35.71428 z"
       id="path3374"
       inkscape:connector-curvature="0"
       sodipodi:nodetypes="ccccc" />
  </g>
</svg>
